<svg width="16" height="16" viewBox="0 0 16 16" fill="none" xmlns="http://www.w3.org/2000/svg">
<path d="M8.27495 14.875C8.45828 14.6917 8.55428 14.4583 8.56295 14.175C8.57095 13.8917 8.48328 13.6583 8.29995 13.475L3.39995 8.575H14.575C14.8583 8.575 15.096 8.479 15.288 8.287C15.4793 8.09567 15.575 7.85833 15.575 7.575C15.575 7.29167 15.4793 7.054 15.288 6.862C15.096 6.67067 14.8583 6.575 14.575 6.575H3.39995L8.29995 1.675C8.48328 1.49167 8.57095 1.25833 8.56295 0.975C8.55428 0.691667 8.45828 0.458333 8.27495 0.275C8.09162 0.0916663 7.85828 0 7.57495 0C7.29162 0 7.05828 0.0916663 6.87495 0.275L0.274952 6.875C0.174952 6.95833 0.103951 7.06233 0.0619507 7.187C0.0206175 7.31233 -4.95911e-05 7.44167 -4.95911e-05 7.575C-4.95911e-05 7.70833 0.0206175 7.83333 0.0619507 7.95C0.103951 8.06667 0.174952 8.175 0.274952 8.275L6.87495 14.875C7.05828 15.0583 7.29162 15.15 7.57495 15.15C7.85828 15.15 8.09162 15.0583 8.27495 14.875Z" fill="#031927"/>
</svg>
